<?xml version="1.0" encoding="utf-8"?>
<!-- Generator: Adobe Illustrator 28.2.0, SVG Export Plug-In . SVG Version: 6.00 Build 0)  -->
<svg version="1.1" id="Layer_1" xmlns="http://www.w3.org/2000/svg" xmlns:xlink="http://www.w3.org/1999/xlink" x="0px" y="0px"
	 viewBox="0 0 2000 2000" style="enable-background:new 0 0 2000 2000;" xml:space="preserve">
<style type="text/css">
	.st0{fill:#A50064;}
</style>
<g>
	<path class="st0" d="M1233.5,970c98,0,175-77,175-175s-77-175-175-175s-175,77-175,175S1135.5,970,1233.5,970z M1233.5,716
		c44,0,75,35,75,79s-31,79-75,79s-75-35-75-79S1189.5,716,1233.5,716z"/>
	<path class="st0" d="M874.5,620c-28.29,0-57.1,10.53-78.81,26.23C775.57,630.53,749.07,620,721.5,620c-73,0-130,46-130,135v210h100
		V746c0-17,12-29,28-29s28,12,28,29v219h100V746c0-17,12-29,28-29s28,12,28,29v219h100V755C1003.5,666,945.5,620,874.5,620z"/>
	<path class="st0" d="M1233.5,1030c-98,0-175,77-175,175s77,175,175,175s175-77,175-175S1331.5,1030,1233.5,1030z M1233.5,1284
		c-44,0-75-35-75-79s31-79,75-79s75,35,75,79S1277.5,1284,1233.5,1284z"/>
	<path class="st0" d="M874.5,1030c-28.29,0-57.1,10.53-78.81,26.23c-20.12-15.7-46.62-26.23-74.19-26.23c-73,0-130,46-130,135v210
		h100v-219c0-17,12-29,28-29s28,12,28,29v219h100v-219c0-17,12-29,28-29s28,12,28,29v219h100v-210
		C1003.5,1076,945.5,1030,874.5,1030z"/>
</g>
</svg>
